<?xml version="1.0" encoding="UTF-8" standalone="no"?>
<!DOCTYPE svg PUBLIC "-//W3C//DTD SVG 1.1//EN" "http://www.w3.org/Graphics/SVG/1.1/DTD/svg11.dtd">
<svg width="100%" height="100%" viewBox="0 0 5000 4100" version="1.1" xmlns="http://www.w3.org/2000/svg" xmlns:xlink="http://www.w3.org/1999/xlink" xml:space="preserve" xmlns:serif="http://www.serif.com/" style="fill-rule:evenodd;clip-rule:evenodd;stroke-linejoin:round;stroke-miterlimit:2;">
    <g transform="matrix(4.16667,0,0,4.16667,0,0)">
        <g transform="matrix(0.215146,0,0,0.215146,122.909,15.4359)">
            <circle cx="2217.52" cy="2280.26" r="1769.02" style="fill:white;"/>
        </g>
        <g transform="matrix(1,0,0,1,0.000540835,0.618297)">
            <path d="M832.341,522.899C825.81,570.247 843.637,635.755 885.063,649.601C904.734,656.175 906.674,680.198 882.75,681.006C868.397,688.536 839.321,692.584 804.022,679.102C809.099,683.182 817.843,689.087 827.01,693.509C798.846,702.393 734.996,678.929 654.812,683.526C574.626,688.123 579.561,568.699 610.945,564.459C642.331,560.22 734.79,467.76 832.341,522.899Z" style="fill:rgb(63,81,181);"/>
        </g>
        <g transform="matrix(1,0,0,1,0.000540835,0.618297)">
            <path d="M832.427,512.698C831.48,367.673 720.875,319.562 693.286,307.3C716.53,328.572 715.975,349.434 715.975,349.434C699.342,336.033 611.418,278.1 534.266,288.46C571.712,304.348 577.211,326.544 577.211,326.544C549.662,303.856 424.877,307.907 380.31,338.698C418.242,333.75 445.943,345.181 445.943,345.181C445.943,345.181 359.07,375.944 322.202,440.218C363.15,418.262 401.031,433.851 401.031,433.851C360.516,433.851 302.87,489.561 299.744,538.582C329.088,510.25 350.793,503.537 350.793,503.537C350.793,503.537 314.504,582.828 320.61,637.872C340.404,599.007 372.267,585.782 372.267,585.782C413.418,704.337 553.556,695.22 654.812,683.526C654.858,652.179 650.375,620.017 697.643,617.892C689.688,610.955 681.486,605.49 659.755,611.835C669.426,598.327 689.463,582.724 722.899,581.248C711.023,550.71 754.913,548.472 782.056,577.312C778.93,549.181 798.322,520.945 825.268,521.974C829.714,522.552 832.306,522.894 832.336,522.898L832.341,522.899C833.041,518.694 833.042,515.367 832.427,512.698Z" style="fill:rgb(63,81,181);"/>
        </g>
        <g transform="matrix(1,0,0,1,0.000540835,0.618297)">
            <path d="M884.667,649.459C884.8,649.505 884.93,649.556 885.063,649.601C904.706,656.166 906.666,680.126 882.853,681.001C879.588,676.994 877.624,671.842 877.624,666.221C877.624,659.624 880.328,653.671 884.667,649.459Z" style="fill:rgb(63,81,181);"/>
        </g>
        <g transform="matrix(-0.808414,0.588614,-0.588614,-0.808414,1806.29,667.898)">
            <path d="M794.551,612.104C803.109,612.104 810.049,619.042 810.049,627.601C810.049,636.16 803.109,643.099 794.551,643.099C785.992,643.099 779.053,636.16 779.053,627.601C779.053,625.8 779.361,624.071 779.926,622.463C781.374,625.501 784.475,627.601 788.064,627.601C793.041,627.601 797.076,623.566 797.076,618.589C797.076,616.044 796.021,613.746 794.323,612.107L794.551,612.104Z" style="fill:white;"/>
        </g>
    </g>
</svg>
