<?xml version="1.0" encoding="UTF-8" standalone="no"?>
<!DOCTYPE svg PUBLIC "-//W3C//DTD SVG 1.1//EN" "http://www.w3.org/Graphics/SVG/1.1/DTD/svg11.dtd">
<svg width="100%" height="100%" viewBox="0 0 1000 1000" version="1.1" xmlns="http://www.w3.org/2000/svg" xmlns:xlink="http://www.w3.org/1999/xlink" xml:space="preserve" xmlns:serif="http://www.serif.com/" style="fill-rule:evenodd;clip-rule:evenodd;stroke-linejoin:round;stroke-miterlimit:2;">
    <g>
        <g transform="matrix(1.26392,0,0,1.26392,-173.311,-126.435)">
            <path d="M431.045,656.448C427.37,642.094 418.517,639.962 411.738,640.701C406.955,641.222 401.554,643.307 395.682,646.905C390.07,650.345 384.725,663.045 380.431,673.249C379.577,675.272 378.77,677.194 378.016,678.904C373.816,688.448 356.779,705.454 349.017,712.021C345.356,715.119 339.713,717.343 334.735,719.304C327.905,721.998 322.509,724.125 322.815,727.922C322.919,729.219 323.424,730.232 324.316,730.938C325.47,731.848 327.221,732.181 329.415,731.867C329.27,731.96 329.125,732.055 328.981,732.147C323.793,735.515 318.893,738.695 321.463,742.643C322.689,744.532 325.453,745.252 329.68,744.793C331.869,744.553 334.335,744.006 336.746,743.311C330.289,747.159 324.028,751.424 324.853,755.976C325.265,758.26 327.74,759.174 332.203,758.688L332.204,758.688C343.782,757.427 366.06,747.519 375.547,739.412C378.978,736.478 383.184,733.168 387.252,729.964C394.887,723.957 402.099,718.281 404.503,714.939C405.37,713.731 406.413,712.33 407.577,710.764C417.293,697.695 435.377,673.367 431.045,656.448Z" style="fill:white;fill-rule:nonzero;"/>
        </g>
        <g transform="matrix(1.26392,0,0,1.26392,-173.311,-126.435)">
            <path d="M676.272,695.709L675.185,694.234C671.4,689.092 668.539,682.085 665.511,674.667C659.241,659.305 652.756,643.419 636.953,642.098C633.062,641.773 617.48,647.667 615.965,651.199C610.799,663.235 621.201,685.387 627.415,698.624C627.866,699.58 628.291,700.485 628.684,701.333C635.643,716.312 626.62,732.261 620.877,738.604C616.119,743.859 613.5,752.994 615.384,757.769C616.613,760.881 619.655,761.846 623.278,759.968C626.431,758.333 629.733,755.865 632.791,753.076C630.544,756.598 629.059,759.507 629.886,762.038C630.377,763.536 631.62,764.668 633.583,765.397C634.361,765.687 635.187,765.869 636.037,765.941C642.191,766.454 649.464,761.041 655.755,753.508C653.807,757.851 652.704,761.132 654.087,763.553C654.987,765.128 656.767,766.025 659.527,766.294L659.694,766.309L659.695,766.31C671.458,767.293 681.606,751.426 686.446,735.266C691.931,716.952 689.234,713.293 676.272,695.709Z" style="fill:white;fill-rule:nonzero;"/>
        </g>
        <g transform="matrix(1.26392,0,0,1.26392,-173.311,-126.435)">
            <path d="M256.273,439.092C286.55,404.159 368.396,303.833 546.47,326.259C724.543,348.684 802.026,439.495 792.396,545.603C782.768,651.712 652.985,717.666 496.363,700.042C317.66,679.931 208.508,621.76 163.835,557.404C134.638,515.342 124.345,458.094 172.692,474.186C221.039,490.278 243.883,453.388 256.273,439.092Z" style="fill:white;fill-rule:nonzero;"/>
        </g>
        <g transform="matrix(1.26392,0,0,1.26392,-173.311,-126.435)">
            <path d="M157.961,548.323C133.479,507.642 127.751,459.228 172.692,474.186C183.418,477.756 192.888,478.718 201.268,477.898C205.899,491.09 195.554,543.872 157.961,548.323Z" style="fill:white;fill-rule:nonzero;"/>
        </g>
        <g transform="matrix(1.26392,0,0,1.26392,-173.311,-126.435)">
            <path d="M475.296,672.8C473.981,668.788 471.448,665.865 467.767,664.114C462.959,661.829 457.724,660.971 452.208,661.572C439.957,662.906 427.352,682.82 423.055,693.629C422.522,694.972 421.973,696.372 421.406,697.821C414.229,716.128 404.4,741.204 385.688,752C368.674,761.811 364.693,768.061 366.543,773.402C366.944,774.561 368.321,776.559 370.274,776.662C376.733,777.003 380.724,775.709 390.121,769.524C387.314,773.71 386.451,776.921 387.486,779.261C388.36,781.237 389.584,782.618 392.742,782.783C392.985,782.797 394.244,782.584 394.519,782.555C398.176,782.157 404.638,777.631 409.106,773.437C407.715,777.498 407.016,780.486 408.437,782.189C409.26,783.173 410.609,783.55 412.562,783.336C413.674,783.217 414.992,782.908 416.592,782.391C422.002,780.646 430.3,772.392 436.307,765.774C446.391,754.664 457.783,739.546 462.804,730.606C465.672,725.501 480.323,688.142 475.296,672.8Z" style="fill:white;fill-rule:nonzero;"/>
        </g>
        <g transform="matrix(1.26392,0,0,1.26392,-173.311,-126.435)">
            <path d="M755.765,709.96C751.426,704.577 747.901,695.214 744.167,685.299C737.128,666.621 729.153,645.447 712.597,644.061C709.132,643.772 693.347,651.675 691.708,657.404C687.084,673.543 696.54,702.803 713.703,725.469C722.5,737.085 708.46,761.5 700.707,770.853C697.734,774.44 696.747,778.454 698.063,781.591C699.066,783.979 701.3,785.541 704.041,785.77C706.138,785.946 708.445,785.348 710.713,784.043C713.79,782.273 716.983,779.662 719.917,776.742C717.827,780.358 716.465,783.332 717.405,785.823C717.96,787.299 719.252,788.374 721.246,789.017C721.904,789.23 722.593,789.368 723.298,789.427C729.576,789.951 736.772,784.186 742.861,776.21C741.127,780.582 740.181,783.874 741.615,786.223C742.577,787.798 744.35,788.638 747.204,788.78C759.074,789.416 768.583,773.078 772.739,756.605C777.66,737.122 769.882,727.473 755.765,709.96Z" style="fill:white;fill-rule:nonzero;"/>
        </g>
        <g transform="matrix(1.26392,0,0,1.26392,-173.311,-126.435)">
            <path d="M928.152,515.279C927.849,514.628 927.177,514.23 926.488,514.3C923.377,514.568 920.099,514.677 916.752,514.627C890.771,514.218 862.404,504.183 847.277,494.396C872.898,480.407 905.365,443.611 908.621,417.889C908.703,417.22 908.398,416.562 907.837,416.207C907.275,415.85 906.566,415.862 906.013,416.236C895.982,423.055 856.294,430.387 831.513,430C829.5,429.968 827.609,429.886 825.867,429.756C837.064,413.593 845.834,362.027 847.802,329.909C847.849,329.143 847.394,328.438 846.687,328.18C845.984,327.923 845.189,328.172 844.75,328.796C833.544,344.691 798.484,373.418 773.73,374.066C780.074,358.781 795.441,311.633 784.748,281.512C784.531,280.904 784.002,280.472 783.373,280.391C782.732,280.312 782.127,280.598 781.769,281.131C770.392,298.185 739.22,324.718 715.791,334.127C719.709,316.495 725.173,260.815 713.886,234.241C713.619,233.613 712.98,233.253 712.343,233.205C711.673,233.203 711.068,233.606 710.796,234.232C701.857,254.909 670.306,292.566 654.853,301.561C652.224,281.399 637.085,230.456 616.298,211.782C615.818,211.349 615.136,211.234 614.541,211.483C613.947,211.735 613.543,212.308 613.502,212.963C612.123,234.209 602.783,266.17 590.654,282.993C588.123,266.035 578.89,217.467 554.634,202.382C554.14,202.076 553.527,202.047 553.005,202.312C552.486,202.575 552.138,203.093 552.078,203.682C549.771,227.13 536.496,256.361 527.365,271.876C524,258.697 512.492,219.91 489.888,202.158C489.382,201.761 488.703,201.689 488.127,201.972C487.553,202.256 487.184,202.845 487.174,203.497C486.816,226.172 474.651,258.293 464.494,270.545C456.242,251.578 427.892,222.802 407.409,209.443C406.831,209.066 406.086,209.085 405.525,209.49C404.965,209.896 404.702,210.608 404.859,211.291C408.799,228.409 406.177,256.19 401.255,269.763C390.61,248.781 357.366,218.668 332.343,218.277C331.758,218.268 331.173,218.275 330.599,218.299C329.919,218.328 329.322,218.772 329.086,219.424C328.85,220.077 329.022,220.81 329.521,221.283C341.241,232.394 348.356,266.072 346.893,278.45C322.934,255.543 297.005,250.323 279.244,250.045C267.363,249.859 255.217,251.855 244.12,255.817C243.409,256.071 242.949,256.775 242.991,257.543C243.035,258.311 243.571,258.956 244.306,259.123C254.747,261.512 288.785,291 294.995,313.492C284.121,309.319 270.045,304.96 253.786,304.707C239.123,304.478 224.856,307.684 211.385,314.236C210.83,314.505 210.463,315.061 210.426,315.686C210.388,316.311 210.685,316.908 211.202,317.243C213.541,318.764 215.943,320.298 218.387,321.858C247.544,340.486 280.594,361.598 285.603,406.112C285.654,406.575 285.888,406.997 286.25,407.281C286.611,407.565 287.069,407.687 287.522,407.619C291.627,407.001 295.709,406.72 299.653,406.781C326.165,407.195 343.946,422.914 354.192,436.027C367.833,453.482 373.297,478.585 371.25,486.916C370.956,488.111 388.423,531.187 391.06,550.045C397.734,597.79 457.178,654.673 476.862,667.808C504.173,686.039 567.21,703.306 582.613,706.568C582.718,706.589 582.826,706.601 582.929,706.603L582.951,706.603C583.882,706.619 584.648,705.859 584.666,704.908C584.671,704.388 584.455,703.918 584.101,703.595C581.392,700.302 579.695,697.652 578.605,694.875C600.302,705.925 625.664,713.019 645.701,713.544L645.718,713.544C646.435,713.554 647.084,713.101 647.33,712.41C647.578,711.714 647.361,710.933 646.794,710.474C646.173,709.97 644.98,709.238 643.326,708.22C640.48,706.476 636.127,703.8 632.267,700.72C649.58,707.234 676.914,713.38 688.9,712.814C689.662,712.779 690.308,712.226 690.472,711.464C690.638,710.707 690.283,709.925 689.607,709.568C683.955,706.554 679.326,703.464 675.849,698.976C688.535,703.041 711.689,707.4 726.822,707.636C733.293,707.74 737.58,707.093 739.927,705.666C740.425,705.361 740.738,704.814 740.752,704.222C740.765,703.63 740.478,703.072 739.996,702.746C738.767,701.921 736.98,701.181 734.714,700.25C729.99,698.304 723.82,695.761 720.048,691.164C727.75,692.64 734.687,693.41 741.15,693.511C752.712,693.693 761.513,691.779 771.703,689.56C774.843,688.878 778.087,688.171 781.566,687.496C782.396,687.334 782.98,686.574 782.937,685.714C782.892,684.855 782.234,684.16 781.394,684.087C767.507,682.906 755.087,674.962 747.589,666.585C753.373,667.736 759.923,668.373 767.138,668.486C796.539,668.945 833.539,660.334 850.96,652.093C851.593,651.793 851.98,651.125 851.935,650.414C851.888,649.701 851.416,649.093 850.748,648.884C840.107,645.539 823.404,632.291 819.906,619.853C821.996,620.085 824.923,620.285 828.535,620.343C841.793,620.55 876.832,618.921 915.755,599.367C916.394,599.043 916.769,598.343 916.689,597.623C916.607,596.898 916.089,596.304 915.394,596.142C897.796,591.972 854.763,568.146 847.791,556.027C877.587,556.697 894.837,551.97 927.837,517.214C928.328,516.699 928.453,515.927 928.152,515.279Z" style="fill:white;fill-rule:nonzero;"/>
        </g>
        <g transform="matrix(1.26392,0,0,1.26392,-173.311,-126.435)">
            <path d="M561.434,397.475C571.986,370.773 569.958,337.053 564.668,309.4C563.593,303.795 558.916,290.148 557.178,284.717C554.663,276.854 557.071,300.708 547.879,331.482C536.145,370.767 512.942,374.755 528.444,380.205C532.37,381.585 560.279,401.915 561.434,397.475Z" style="fill:white;fill-rule:nonzero;"/>
        </g>
        <g transform="matrix(1.26392,0,0,1.26392,-173.311,-126.435)">
            <path d="M668.864,473.519C685.71,454.499 698.978,434.016 709.325,410.819C710.378,408.024 715.443,397.647 716.493,386.464C717.128,379.696 712.926,392.324 699.836,405.354C687.361,417.774 672.103,426.838 658.354,432.182C652.175,434.583 642.73,436.736 643.931,441.859C645.426,448.237 664.53,479.764 668.864,473.519Z" style="fill:white;fill-rule:nonzero;"/>
        </g>
        <g transform="matrix(1.26392,0,0,1.26392,-173.311,-126.435)">
            <path d="M456.38,374.699C442.729,354.074 428.83,339.115 405.045,329.785C395.024,325.854 379.137,324.681 382.822,325.976C382.822,325.616 397.316,335.815 403.779,344.925C414.639,360.233 414.669,374.355 416.369,387.348C417.108,392.961 458.085,376.644 456.38,374.699Z" style="fill:white;fill-rule:nonzero;"/>
        </g>
        <g transform="matrix(1.26392,0,0,1.26392,-173.311,-126.435)">
            <path d="M699.451,534.208C722.34,544.74 745.157,547.797 775.194,544.078C783.914,542.999 804.266,542.725 777.65,538.355C751.675,534.089 726.324,507.238 718.435,496.002C714.156,490.691 694.703,530.85 699.451,534.208Z" style="fill:white;fill-rule:nonzero;"/>
        </g>
        <g transform="matrix(1.26392,0,0,1.26392,-173.311,-126.435)">
            <path d="M627.967,556.926C640.216,591.515 683.473,648.215 672.277,623.418C667.071,611.884 664.474,581.686 669.59,548.82C670.011,546.113 624.878,552.116 627.967,556.926Z" style="fill:white;fill-rule:nonzero;"/>
        </g>
        <g transform="matrix(1.26392,0,0,1.26392,-173.311,-126.435)">
            <path d="M555.588,484.866C552.526,512.324 520.276,553.947 513.403,561.841C503.629,573.071 548.986,547.031 561.358,538.748C571.158,532.187 594.921,508.803 590.624,506.185C587.379,504.21 556.59,475.872 555.588,484.866Z" style="fill:white;fill-rule:nonzero;"/>
        </g>
        <g transform="matrix(1.26392,0,0,1.26392,-173.311,-126.435)">
            <path d="M341.263,542.666C342.697,551.484 333.177,560.371 319.998,562.511C306.823,564.655 294.978,559.241 293.543,550.423C292.11,541.605 301.631,532.718 314.807,530.578C327.985,528.435 339.83,533.848 341.263,542.666Z" style="fill:white;fill-rule:nonzero;"/>
        </g>
        <g transform="matrix(1.26392,0,0,1.26392,-173.311,-126.435)">
            <path d="M307.188,499.843C305.962,514.503 293.084,525.392 278.425,524.166C263.766,522.941 252.877,510.062 254.103,495.403C255.329,480.745 268.207,469.855 282.866,471.081C297.525,472.307 308.415,485.186 307.188,499.843Z" style="fill:white;fill-rule:nonzero;"/>
        </g>
        <g transform="matrix(1.26392,0,0,1.26392,-173.311,-126.435)">
            <path d="M278.284,525.85C262.721,524.547 251.118,510.827 252.42,495.262C253.723,479.699 267.443,468.097 283.006,469.398C298.57,470.7 310.173,484.42 308.871,499.984C307.569,515.548 293.848,527.151 278.284,525.85ZM282.725,472.763C269.017,471.617 256.931,481.835 255.785,495.544C254.638,509.252 264.857,521.337 278.566,522.484C292.273,523.63 304.359,513.412 305.506,499.703C306.653,485.995 296.434,473.91 282.725,472.763Z" style="fill:white;fill-rule:nonzero;"/>
        </g>
        <g transform="matrix(1.26392,0,0,1.26392,-173.311,-126.435)">
            <path d="M297.433,499.451C296.271,513.335 285.705,523.789 273.833,522.795C261.961,521.802 253.28,509.74 254.441,495.855C255.603,481.97 266.168,471.518 278.039,472.511C289.912,473.504 298.594,485.566 297.433,499.451Z" style="fill:white;fill-rule:nonzero;"/>
        </g>
        <g transform="matrix(1.26392,0,0,1.26392,-173.311,-126.435)">
            <path d="M275.45,489.985C273.688,494.258 268.925,496.354 264.813,494.659C260.702,492.964 258.797,488.123 260.56,483.846C262.323,479.57 267.085,477.48 271.196,479.172C275.308,480.869 277.212,485.709 275.45,489.985Z" style="fill:white;fill-rule:nonzero;"/>
        </g>
        <g transform="matrix(1.26392,0,0,1.26392,-173.311,-126.435)">
            <path d="M155.586,487.367C147.126,489.582 138.979,485.806 137.392,478.938C135.805,472.065 141.381,464.7 149.842,462.486C158.304,460.27 166.449,464.043 168.036,470.914C169.623,477.784 164.047,485.149 155.586,487.367Z" style="fill:white;fill-rule:nonzero;"/>
        </g>
        <g transform="matrix(1.26392,0,0,1.26392,-173.311,-126.435)">
            <path d="M147.1,474.767C144.195,474.66 142.026,472.627 142.253,470.23C142.482,467.834 145.022,465.978 147.925,466.087C150.831,466.196 152.999,468.225 152.77,470.623C152.541,473.02 150.003,474.876 147.1,474.767Z" style="fill:white;fill-rule:nonzero;"/>
        </g>
        <g transform="matrix(1.26392,0,0,1.26392,-173.311,-126.435)">
            <path d="M198.084,585.579C196.69,585.244 195.377,583.94 195.35,583.165C195.316,582.234 196.044,581.451 196.977,581.417L197.313,581.406C204.506,581.152 221.352,580.558 224.263,565.686C224.39,565.033 224.888,564.516 225.536,564.368C226.185,564.217 226.86,564.46 227.261,564.988C227.261,564.988 231.536,571.132 233.227,573.549C234.153,574.876 235.782,577.599 234.154,576.52C233.377,576.008 226.641,569.742 226.641,569.742C221.515,583.933 212.198,585.434 206.074,586.042C202.211,586.423 200.226,586.093 198.084,585.579Z" style="fill:white;fill-rule:nonzero;"/>
        </g>
        <g transform="matrix(1.26392,0,0,1.26392,-173.311,-126.435)">
            <path d="M369.886,488.573C375.162,477.507 388.183,460.741 417.929,461.979C456.705,463.594 468.257,485.825 469.894,499.972C471.861,516.976 442.314,552.613 389.232,548.408C386.387,547.977 367.241,494.604 369.886,488.573Z" style="fill:white;fill-rule:nonzero;"/>
        </g>
        <g transform="matrix(1.26392,0,0,1.26392,-173.311,-126.435)">
            <path d="M380.003,505.371C384.733,496.049 396.388,473.136 422.39,475.493C448.391,477.849 456.199,492.287 457.462,502.13C459.643,519.099 421.812,534.002 387.932,532.943C387.932,532.943 385.867,527.285 384.337,523.673C382.502,519.34 380.003,505.371 380.003,505.371Z" style="fill:white;fill-rule:nonzero;"/>
        </g>
        <g transform="matrix(1.26392,0,0,1.26392,-173.311,-126.435)">
            <path d="M380.003,505.371C384.733,496.049 396.388,473.136 422.39,475.493C434.34,476.576 442.448,480.209 447.843,484.778C404.948,466.314 384.337,523.673 384.337,523.673C381.858,518.854 380.003,505.371 380.003,505.371Z" style="fill:white;fill-rule:nonzero;"/>
        </g>
    </g>
</svg>
